<?xml version="1.0" encoding="UTF-8"?>
<svg id="_图层_1" data-name="图层 1" xmlns="http://www.w3.org/2000/svg" viewBox="0 0 258.35 243.89">
  <defs>
    <style>
      .cls-1 {
        fill: #a4dbe9;
      }

      .cls-2 {
        fill: #7ebbbd;
      }

      .cls-3 {
        fill: #d6a9ef;
      }

      .cls-4 {
        fill: #f9d681;
      }

      .cls-5 {
        fill: #e59191;
      }

      .cls-6 {
        fill: #a4e9b2;
      }

      .cls-7 {
        fill: #fecf88;
      }

      .cls-8 {
        fill: #3c3c3c;
      }

      .cls-9 {
        fill: #fefefe;
      }
    </style>
  </defs>
  <path class="cls-7" d="M62.28,60.16c-.16-.77-.77-.7-1.31-.63-4.59,.53-8.9,1.92-12.89,4.26-1.51,.89-3.06,1.7-4.42,2.86-.82,.7-1.94,.27-2.91,.21-2.86-.18-5.69-.89-8.6-.44-1.61,.24-2.79-.49-3.52-1.92-.31-.64,.19-1.05,.45-1.51,1.17-2.02,2.74-3.74,4.12-5.61,4.4-5.99,9.4-11.45,14.85-16.5,6.81-6.31,14.21-11.86,22.28-16.5,9.79-5.63,20.11-9.97,31.04-12.89,7.08-1.9,14.27-3.12,21.55-3.84,5.83-.58,11.7-.74,17.55-.49,12.82,.54,25.36,2.77,37.49,7.01,9.01,3.15,17.55,7.29,25.58,12.45,5.51,3.54,10.67,7.51,15.52,11.92,6.29,5.73,11.67,12.19,16.37,19.26,1.67,2.51,3.12,5.13,4.55,7.76,.25,.46,.68,.95,.21,1.54-.27-.06-.55-.17-.82-.16-6.62,.22-13.2-.32-19.8-.67-7.04-.38-14.11-.28-21.14,.06-7.09,.34-14.18,.28-21.27,.39-2.58,.04-4.68-.5-6.51-2.44-2.47-2.62-5.38-4.76-8.38-6.76-.16-.11-.27-.29-.4-.43-.04-.16-.01-.31,.06-.46,.88-1.93,.55-3.36-1.13-4.73-1.88-1.53-3.98-2.67-6.26-3.52-7.02-2.64-14.28-4.1-21.77-4.09-5.96,0-11.8,1.22-17.53,2.86-3.7,1.07-7.35,2.31-10.88,3.86-2.85,1.24-5.47,2.86-7.89,4.8-.51,.41-.94,.87-1.19,1.48-.17,.42-.26,.85,.08,1.24,.36,.4,.78,.31,1.22,.15,.36-.14,.72-.39,1.14-.16-1.35,1.78-3.17,3.15-4.39,5.05-.45,.7-1.1,1.31-1.43,2.06-.45,.99-1.13,1.14-2.11,1.13-3.61-.02-7.2-.35-10.8-.44-2.99-.07-5.99,.26-8.99,.39-1.69,.07-1.67,.04-1.82-1.67-.18-2.06-1.22-3.58-3.02-4.59-.35-.34,0-.57,.15-.78,1.29-1.76,2.79-3.46,4.63-4.49,3.09-1.73,5.51-4.28,8.5-6.13,8.91-5.5,18.25-10.08,28.05-13.76,5.05-1.9,10.23-3.34,15.57-4.14,6.21-.93,12.39-.77,18.54,.62,7.46,1.69,14.85,3.62,21.6,7.29,7.15,3.89,14.44,7.52,21.54,11.51,.25,.14,.49,.27,.75,.39,1.12,.49,2.05,.32,2.73-.49,.61-.72,.61-1.9-.03-2.79-.4-.56-.9-1.03-1.42-1.46-2.87-2.4-5.95-4.49-9.28-6.2-4.25-2.18-8.4-4.52-12.65-6.7-6.29-3.22-13.02-4.97-19.89-6.34-4.06-.81-8.16-1.38-12.29-1.43-6.39-.07-12.64,1.04-18.71,2.95-10.04,3.15-19.48,7.64-28.58,12.89-3.83,2.21-7.51,4.62-10.88,7.49-.58,.5-1.21,.92-1.87,1.3-3.21,1.87-5.67,4.53-7.96,7.4-.64,.8-.68,1.85-1.35,2.6Z"/>
  <path class="cls-8" d="M133.75,243.86c-17.25,.3-34.02-2.21-50.14-8.52-19.15-7.5-35.51-18.96-49.16-34.28-.42-.47-.76-1.01-1.56-.9-.36,.05-.6-.36-.84-.62-2.01-2.23-3.94-4.54-5.71-6.97-2.99-4.1-4.28-8.91-5.62-13.68-.64-2.27-1.06-4.6-1.18-6.96-.03-.54-.29-.88-.64-1.23-.85-.86-1.2-1.89-.9-3.07,.16-.6,.1-1.18,.08-1.78-.05-1.44,.62-2.28,2.03-2.47,.45-.06,.74-.23,1-.55,.18-.22,.36-.43,.55-.64,3.55-3.87,6.34-4.36,10.84-1.67,2.93,1.74,6.07,2.7,9.41,3.1,3.89,.47,7.55,1.59,10.71,3.98,1.18,.89,2.26,.85,3.43,.11,1.76-1.12,3.5-2.26,5.29-3.33,1.34-.81,2.72-1.55,4.1-2.28,5.14-2.71,10.47-2.79,15.7-.56,4.26,1.82,8.69,3.07,13.05,4.59,2.18,.76,4.26,.69,6.32-.26,2.44-1.12,4.84-2.33,7.29-3.44,2.78-1.26,5.65-2.28,8.64-2.98,3.49-.82,6.61-.12,9.35,2.19,.61,.52,1.21,1.05,1.82,1.57,4.17,3.45,8.71,4.44,13.74,1.99,2.83-1.38,5.72-2.51,8.89-2.85,3.42-.37,6.33,.66,8.8,3.01,1.14,1.08,2.07,2.34,3.06,3.54,1.73,2.11,3.03,2.56,5.59,1.67,3.15-1.09,6.25-2.31,9.38-3.45,2.61-.95,5.27-1.68,8.04-2.04,3.33-.43,6.48,.17,9.46,1.67,1.04,.52,2.04,1.11,3.02,1.73,2.86,1.82,2.25,1.81,5.12-.08,2.58-1.7,5.22-3.29,8.12-4.43,3.82-1.5,7.61-1.46,11.12,.67,2.62,1.58,5.42,1.14,8.19,1.34,.54,.04,.96-.38,1.38-.68,1.14-.81,2.26-1.66,3.51-2.32,2.27-1.2,4.48-1.11,6.61,.29,.84,.55,1.7,1.01,2.66,1.36,2.92,1.06,4.32,4.07,3.69,7.74-.41,2.42-1.67,4.48-2.78,6.6-.42,.8-.79,1.58-.73,2.49,.06,.82-.4,1.44-.68,2.14-.79,1.92-1.6,3.84-2.41,5.75-.58,1.38-1.39,2.62-2.55,3.59-1.12,.94-1.59,2.29-2.28,3.5-7.45,13.07-18.04,22.98-30.97,30.52-13.28,7.74-27.69,12.2-42.84,14.52-9.62,1.47-19.29,2.29-29.02,2.42Z"/>
  <path class="cls-5" d="M37.3,124.3c-.3,0-.6,0-.9-.01-.1-.25,.33-.73-.45-.67-2.17,.17-4.29,.59-6.43,.91-2.78,.42-5.56,.85-8.38,.34-.42-.08-.98,.05-1.14-.47-.13-.41,.29-.71,.52-1.02,.47-.65,1.09-.97,1.86-1.21,3.31-.99,6.33-2.53,8.76-5.05,1.32-1.37,2.17-3.07,3.14-4.67,.51-.84,.4-1.78-.27-2.58-.7-.84-1.62-1.17-2.69-.98-.85,.15-1.35,.67-1.36,1.57-.02,.88-.05,1.76,.13,2.63,.22,1.04-.05,1.95-.64,2.83-.97,1.44-2.3,2.45-3.8,3.25-1.45,.78-2.91,1.54-4.5,2-.62,.18-1.21,.43-1.62,.98-.32,.43-.79,.53-1.28,.54-3.22,.06-6.42-.2-9.57-.84-1.86-.38-3.44-1.31-4.65-2.8-.72-.89-1.23-1.86-1.25-3.04-.03-1.71,.43-2.29,2.13-2.33,1.76-.05,3.53-.1,5.29-.26,2.22-.2,4.35-.73,6.35-1.71,1.25-.61,1.88-1.67,2.53-2.89,1.07-2,.52-3.64-.42-5.4-.79-1.48-1.58-2.97-2.2-4.53-.51-1.29-.54-2.56,0-3.85,1.59-3.85,4.24-6.84,7.63-9.21,.64-.45,1.34-.45,2.08-.34,.74,.11,1.25-.07,.81-.98-.4-.82,.15-1.27,.69-1.71,2.44-1.96,4.97-3.8,7.56-5.55,3.98-2.7,7.92-5.47,12.07-7.9,3.36-1.97,6.83-3.72,10.51-5.03,.49-.17,.99-.33,1.5-.44,1.55-.32,2.13,.1,2.19,1.64,.09,2.65-.21,5.27-.7,7.86-.45,2.4-1.2,4.73-1.87,7.07-.31,1.1-.28,2.27-.89,3.33-.44,.75,.44,.76,.91,.78,2.01,.1,4-.05,6-.32,3.46-.47,6.91-.96,10.39-1.29,1.34-.13,1.7,.09,1.89,1.37,.42,2.81,.76,5.62,.89,8.46,.07,1.53-.26,1.89-1.73,2.01-5.61,.46-11.1,1.69-16.63,2.68-.59,.11-1.18,.25-1.76,.41-.83,.22-1.2,.73-1.61,1.54-1.03,2.03-.85,4.06-.72,6.19,.15,2.5,.22,5.03-.26,7.53-.28,1.45,.29,2.1,1.79,2.14,1.5,.04,2.95-.33,4.37-.75,3.1-.92,6.28-1.32,9.48-1.58,1.21-.1,1.56,.28,1.3,1.46-.64,2.93-.47,5.87-.28,8.83,.04,.62,.61,.69,.86,1.07-.41,.38-1.19-.02-1.43,.69-.14,.09-.29,.14-.45,.11-3.77-.91-7.57-.46-11.36-.29-1.16,.05-2.33-.05-3.49,.14-1.75,.28-2.04,.81-1.27,2.38,.23,.48,.34,.98,.34,1.51,0,1.48,.17,2.95,.2,4.43,.06,3.12,.32,6.22,.33,9.34,0,3.71,.15,7.42,.37,11.13,.05,.9-.22,1.34-1.14,1.64-3.3,1.04-6.73,.97-10.11,1.34-.87,.1-1.35-.34-1.45-1.21-.53-4.28-1.15-8.55-1.44-12.86-.41-5.91-1.14-11.77-2.26-17.59-.26-1.37-.74-1.55-2-.88-.15,.08-.29,.13-.46,.08Z"/>
  <path class="cls-8" d="M240.18,67.09c-.18-1.18-.88-2.14-1.43-3.14-6.85-12.36-15.99-22.76-27.21-31.33-17.88-13.66-38.1-21.67-60.44-24.25-28.52-3.29-55.42,1.82-80.37,16.15-15.27,8.77-28.03,20.37-38.42,34.55-1.29,1.77-2.76,3.42-3.69,5.43-.43,.77-1.07,1.05-1.97,1.03-1.16-.03-2.33,.09-3.49,.19-.71,.06-.91-.22-.89-.89,.03-1.33,.56-2.48,1.14-3.63,2.74-5.46,6.35-10.36,9.68-15.45,6.92-10.58,16.65-18.12,27.09-24.83C77.33,9.91,96.21,3.64,116.38,1.13c23.49-2.93,46.31-.17,68.34,8.51,17.7,6.97,33.27,17.1,45.94,31.39,6.48,7.31,11.65,15.46,15.63,24.37,.34,.77,.29,1.15-.66,1.27-1.35,.17-2.69,.47-4.03,.72-.52,.1-1.04,.24-1.41-.31Z"/>
  <path class="cls-4" d="M97.78,152.85c-.31-.07-.63-.15-.94-.22-.28,.03-.46-.13-.59-.34-1.56-2.47-3.34-4.79-4.84-7.3-2.97-4.98-4.53-10.39-5.22-16.08-.58-4.8-1.04-9.6-1.31-14.43-.24-4.08-.25-8.15-.15-12.22,.12-5.35,.6-10.69,1.31-15.99,.25-1.86,.72-2.11,2.5-1.47,1.53,.56,3.1,.77,4.72,.76,1.51,0,1.68,.22,1.57,1.67-.36,4.74-.44,9.5-.84,14.22-.66,7.83,.73,15.37,2.25,22.93,.61,3.01,.92,6.09,1.97,9.01,.39,1.09,.83,2.17,1.28,3.23,.75,1.76,2.14,2.72,3.96,3.18,6.97,1.76,12.59-2.01,15.51-6.74,1.65-2.66,3.32-5.36,3.62-8.55,.24-2.61,.38-5.23,.28-7.88-.19-5.17-1.25-10.23-1.53-15.38-.15-2.76,.06-5.5,.47-8.24,.42-2.81,.39-5.66-.1-8.48-.25-1.43-.12-1.61,1.35-1.63,2.17-.03,4.34-.04,6.5,0,1.29,.03,1.47,.26,1.26,1.54-.51,3.1-.46,6.2-.19,9.32,.17,2.03,.02,4.08,.07,6.11,.18,7.7,0,15.43,.77,23.1,.31,3.06,.66,6.11,.95,9.17,.04,.41,.15,.82,.46,1.08,.79,.69,.95,1.62,1.09,2.58,.47,3.33,.66,6.68,1.02,10.02,.16,1.48-.33,1.98-1.8,2.06-.68,.03-1.37,.05-2.04-.1-.62-.14-1.19-.42-1.36-1.05-.34-1.31-1.14-2.48-1.16-3.88-.01-.8-.38-.65-.81-.3-.43,.36-.77,.81-1.14,1.23-2.57,2.93-5.57,5.29-9.21,6.77-1.54,.63-3.14,.93-4.81,.96-2.17,.03-4.32,.27-6.47,.52-2.16,.25-4.33,.32-6.48,.02-.85-.12-1.34,.39-1.92,.79Z"/>
  <path class="cls-6" d="M153.27,152.86c-.25-.15-.5-.31-.75-.46,.14-.21,.36-.32,.6-.38,1.22-.32,1.59-1.19,1.65-2.34,.13-2.64-.19-5.27-.29-7.9-.17-4.51-.36-9.01-.45-13.52-.13-6.29,.6-12.52,1.14-18.76,.17-1.94,.36-3.89,.35-5.86-.02-2.03,.2-4.09,.13-6.1-.16-4.93,.23-9.92-1.07-14.77-.08-.31-.15-.63,.08-.91,.92-.17,1.74-.53,2.38-1.24,.43,1.29,1.32,1.42,2.53,1.16,2.01-.44,4.08-.26,6.12-.3,2.48-.05,4.96-.13,7.43-.21,5.04-.17,9.67,1.27,13.99,3.78,1.21,.71,2.43,1.4,3.58,2.21,1.57,1.11,2.53,2.57,2.95,4.49,.85,3.91,.38,7.61-1.24,11.24-.68,1.53-1.17,3.15-1.76,4.72-.48,1.31-1.18,2.5-2.37,3.25-4,2.51-7.8,5.38-12.38,6.86-1.53,.49-3.09,.88-4.67,1.16-.86,.16-1.15,.49-1.13,1.44,.03,1.12,.61,1.72,1.25,2.52,1.9,2.38,3.77,4.78,5.57,7.23,2.1,2.88,4.13,5.84,6.69,8.32,2.38,2.32,4.72,4.68,7.21,6.89,.81,.72,1.62,1.44,2.32,2.26,.61,.71,.47,1.11-.43,1.15-2.08,.1-4.16,.3-6.23,.49-.59,.06-1.13-.13-1.52-.59-2.63-3.15-5.83-5.72-8.72-8.6-1.66-1.66-3.03-3.51-4.12-5.58-1.35-2.56-2.98-4.93-4.85-7.14-.93-1.1-2.98-1.71-4.26-1.19-1.01,.41-1.38,1.34-1.43,2.33-.1,2-.14,4,.03,5.99,.16,1.91,.37,3.82,.39,5.73,.05,3.65,.44,7.25,1.15,10.83,.27,1.36,.1,1.55-1.26,1.6-.85,.03-1.67-.21-2.51-.24-1.73-.06-3.45,.06-5.14,.44-.31,.07-.62,.19-.92-.03Z"/>
  <path class="cls-8" d="M235.99,102.84c.61-.08,1.24-.12,1.84-.25,2.59-.56,5.17-1.15,7.76-1.71,.66-.14,1.35-.3,2.02-.29,1.36,.02,1.92,1.04,1.28,2.23-.39,.72-1.04,1.21-1.58,1.79-2.91,3.13-4.48,6.85-5.06,11.05-.32,2.27,.29,4.05,1.89,5.7,2.98,3.07,4.83,6.86,6.26,10.84,.94,2.62,.64,5.2-.5,7.7-.77,1.69-1.79,3.23-3.1,4.55-4.57,4.61-9.77,8.29-15.99,10.38-2.54,.85-5.06,1.2-7.6-.13-.57-.3-1.33-.24-2-.34-2.04-.31-4.03-.78-5.57-2.29-.38-.37-.82-.24-1.25-.22-1.53,.07-2.95-.25-4.21-1.15-.3-.21-.6-.42-.56-.85,.05-.52,.48-.58,.87-.67,1.45-.32,2.91-.61,4.35-.95,3.98-.94,7.56-2.67,10.49-5.57,1.07-1.05,1.81-2.34,2.33-3.75,1.15-3.11,.33-5.83-2.43-7.65-2.15-1.42-4.5-2.46-6.99-3.16-3.56-1-7.06-2.17-10.45-3.65-2.8-1.23-5.27-2.92-7.26-5.23-3-3.47-3.32-7.53-2.65-11.87,1.43-9.16,6.43-16.22,13.02-22.4,2.79-2.62,6.07-4.24,9.82-4.71,2.76-.34,5.44-.99,8.17-1.45,4.48-.75,8.97-1.34,13.54-1.11,3.4,.18,6.69,.87,9.8,2.27,3.82,1.73,6.15,4.54,6.14,8.92,0,1.52-.65,2.6-1.86,3.67-1.3,1.15-2.76,1.28-4.25,1.68-4.9,1.32-9.3,3.7-13.55,6.38-.96,.61-1.88,1.29-2.82,1.94,.04,.1,.08,.19,.12,.29Z"/>
  <path class="cls-8" d="M97.78,152.85c.13-.88,.56-1.41,1.54-1.19,2.36,.53,4.71,.26,7.07,0,1.64-.18,3.28-.43,4.92-.41,6.34,.1,10.92-3.18,14.97-7.55,.54-.59,1.06-1.2,1.59-1.8,.23-.26,.54-.37,.87-.21,.34,.16,.42,.49,.34,.82-.38,1.61,.97,2.81,1.03,4.32,.01,.29,.36,.42,.63,.48,.51,.11,1.02,.24,1.53,.26,2.47,.11,2.58-.05,2.28-2.48-.41-3.33-.53-6.7-1.08-10.01-.05-.31-.03-.79-.21-.9-1.37-.79-1.31-2.14-1.35-3.39-.13-4.28-1.02-8.48-1.24-12.76-.21-4-.07-7.99-.24-11.99-.24-5.59-.23-11.19-.34-16.79-.03-1.8,.04-3.6,.45-5.36,.12-.53,.03-.71-.54-.71-2.49,.02-4.98,0-7.47,0-.48,0-.81-.01-.65,.71,.84,3.72,.68,7.48-.03,11.19-.44,2.29-.21,4.54-.1,6.8,.24,5.07,1.28,10.06,1.5,15.14,.26,6.14-.81,11.77-4.38,16.95-3.51,5.1-10.31,7.83-16.24,6.01-1.35-.41-2.5-1.22-3.16-2.57-1.19-2.42-2.13-4.92-2.63-7.57-.82-4.32-1.57-8.65-2.48-12.95-1.23-5.83-.88-11.7-.66-17.57,.16-4.2,.35-8.39,.82-12.56,.07-.63-.04-.86-.72-.83-2.07,.09-4.07-.21-5.99-1.04-.83-.36-1.28-.11-1.41,.92-1.59,12.47-1.93,24.94-.5,37.45,.3,2.62,.58,5.24,.96,7.85,.99,6.77,3.79,12.75,7.79,18.24,.77,1.06,1.45,2.17,2.17,3.26,.07,.19,.14,.37,.21,.56,.11,.29,.37,.6,0,.85-.32,.21-.61,.01-.88-.18-1.81-1.3-3.27-2.94-4.57-4.73-4.57-6.27-7.09-13.3-7.94-20.97-1.11-9.98-2.08-19.97-1.47-30.03,.29-4.79,.81-9.56,1.65-14.29,.09-.51,.22-1.02,.4-1.5,.44-1.16,1.23-1.39,2.21-.61,.38,.3,.7,.25,1.11,.21,.96-.11,1.92-.19,2.88-.25,.44-.03,.97-.02,1.25,.32,.74,.93,1.68,.73,2.63,.59,.83-.12,1.67-.28,2.51-.27,.85,.01,1.56,.41,1.81,1.31,.22,.81-.1,1.42-.83,1.79-.44,.23-.48,.58-.5,1-.35,8.31-.59,16.62-.24,24.94,.18,4.09,1.32,8.04,2.03,12.06,.64,3.62,.99,7.29,2.14,10.81,1.07,3.26,1.05,3.12,4.39,3.45,4.67,.46,7.59-2.15,10.04-5.45,2.67-3.59,3.48-7.84,3.63-12.24,.21-6.4-.45-12.78-.52-19.18-.02-2.2,.08-4.39,.17-6.59,.12-2.91-.33-5.82-.76-8.7-.23-1.55,.54-2.75,.77-4.13,.09-.55,.73-.82,1.27-1,.92-.31,1.87-.5,2.83-.53,3.05-.08,6.1-.17,9.15-.19,2.23-.01,3.06,1.38,1.96,3.32-.42,.74-.6,1.46-.58,2.27,.11,6.6,.27,13.19,.3,19.79,.04,7.4,.58,14.78,1.23,22.14,.07,.83,.05,1.68,.04,2.52-.01,.75,.13,1.32,.64,2.01,.63,.84,.77,2.07,1.02,3.15,.79,3.4,.99,6.88,1.44,10.33,.12,.91,.37,1.38,1.39,1.27,.67-.07,1.37,0,2.01,.29,1.39,.63,1.69,2.43,.34,3.02-4.19,1.86-8.45,3.72-13.13,1.35-1.16-.59-2.06-1.36-2.48-2.72-2,1.82-4.01,3.46-6.38,4.61-1.79,.87-3.63,1.55-5.63,1.6-4.05,.08-8.08,.69-12.15,.32-1.04-.1-2.08-.25-3.05-.64-.67-.27-1.31-.63-1.41-1.47Z"/>
  <path class="cls-8" d="M153.27,152.86c2.84-1.03,5.77-.69,8.68-.51,.99,.06,1.13-.15,.89-1.08-.75-2.96-1.06-5.99-1.14-9.02-.11-4.36-.72-8.69-.53-13.06,.04-.81,.11-1.6,.49-2.32,.45-.87,1.14-1.35,2.16-1.06,.32,.09,.6,.15,.93,.05,.94-.28,1.63,.19,2.24,.82,1.99,2.07,3.63,4.39,4.92,6.93,1.81,3.58,4.46,6.42,7.42,9.04,2.07,1.84,4.16,3.66,5.83,5.88,.26,.34,.51,.59,.99,.52,2.37-.33,4.76-.51,7.17-.52,.07-.1,.15-.2,.22-.3-.36-.28-.75-.54-1.08-.86-3.46-3.22-6.94-6.43-10.22-9.84-1.45-1.51-2.65-3.21-3.9-4.87-2.43-3.23-4.87-6.45-7.3-9.68-.05-.06-.05-.2-.1-.21-2.05-.51-.7-2.33-1.29-3.43-.23-.42,.52-.47,.87-.54,1.77-.36,3.54-.72,5.25-1.29,4.6-1.53,8.45-4.38,12.46-6.95,1.04-.67,1.66-1.72,2.08-2.88,.94-2.59,1.88-5.19,2.81-7.78,1.13-3.17,.6-6.31-.2-9.44-.27-1.04-.96-1.87-1.83-2.47-4.01-2.78-8.2-5.2-13.11-6.05-.99-.17-2-.28-2.99-.28-5.01-.01-10.03,.12-15.03,.38-.28,.01-.56,.05-.83,.11-1.82,.42-2.05,.25-2.11-1.54,.49-1.01,1.33-1.69,2.39-1.84,6.15-.89,12.31-1.97,18.55-1.52,6.17,.45,11.6,3.05,16.66,6.42,2.51,1.67,3.47,4.29,3.79,7.19,.49,4.43,.01,8.68-2.02,12.72-.84,1.68-1.48,3.45-2.18,5.2-1.01,2.5-2.65,4.46-4.95,5.86-3.09,1.86-5.99,4.03-9.3,5.52-1.68,.76-3.43,1.3-5.39,1.76,2.88,2.56,5.39,5.26,7.7,8.11,3.43,4.24,7.87,7.4,11.78,11.13,1.74,1.66,3.51,3.28,5.26,4.93,.58,.55,1.11,1.16,1.5,1.86,1.25,2.2-.24,5.02-2.78,5.1-4.09,.12-8.19,.17-12.28-.03-.89-.04-1.64-.37-2.31-.91-6.1-4.93-11.96-10.07-15.76-17.11-.59-1.09-1.26-2.14-1.9-3.2-.08-.13-.19-.25-.29-.38-.39,.18-.2,.5-.19,.73,.21,4.15,.32,8.31,.41,12.46,.06,2.73,.78,5.37,1.59,7.97,.28,.91,.65,1.81,.65,2.79,0,.92-.41,1.44-1.4,1.6-3.54,.57-7.03,.11-10.54-.3-.56-.07-1.11-.19-1.66-.31-1.84-.4-2.66-2.23-1.09-3.54Z"/>
  <path class="cls-8" d="M72.93,124.33c-.96,.04-1.27-.22-1.27-1.35-.01-3.04-.28-6.07,.47-9.06,.2-.81-.41-.63-.79-.6-2.48,.18-4.96,.39-7.38,.99-1.75,.43-3.51,.84-5.26,1.26-.71,.17-1.44,.2-2.15,.1-1.18-.17-1.8-.95-1.56-2.1,.63-3.06,.41-6.12,.26-9.19-.08-1.62-.47-3.39,.91-4.77-.28-2.04,1.43-1.97,2.58-2.21,5.77-1.19,11.55-2.36,17.43-2.92,1.64-.16,1.66-.12,1.6-1.8-.11-2.92-.58-5.8-.85-8.7-.08-.82-.55-.75-1.07-.69-2.99,.35-5.97,.72-8.96,1.06-2.71,.31-5.4,.81-8.15,.62-.52-.04-.98-.11-1.23-.58-.29-.55,.1-.88,.48-1.2,.14-.11,.26-.32,.28-.49,.23-3.02,1.5-5.78,2.09-8.72,.57-2.88,.86-5.77,.77-8.7-.04-1.33-.21-1.48-1.51-1.14-3.84,.99-7.37,2.75-10.76,4.72-7.32,4.24-14.24,9.1-20.98,14.2-.53,.4-1.25,.74-.41,1.54,.28,.26,.3,.66,.1,1-.22,.36-.65,.43-.97,.31-1.72-.61-2.8,.45-3.94,1.4-2.33,1.96-4.18,4.28-5.55,7-.9,1.78-.92,3.48,.02,5.27,.98,1.88,1.85,3.81,2.75,5.73,.42,.9,.77,1.8-.21,2.6-.08,.07-.13,.21-.15,.32-.43,3.11-2.87,4.01-5.37,4.79-2.28,.71-4.64,.87-7.02,.9-.48,0-.96,0-1.45,0-2.64,.03-3.28,.98-2.27,3.47,1.02,2.52,3.15,3.69,5.63,4.2,3.11,.63,6.29,.77,9.46,.79,.23,0,.63-.05,.66-.15,.39-1.35,1.67-1.22,2.62-1.59,2.06-.82,4.08-1.74,5.8-3.13,1.52-1.23,2.79-2.67,2.11-4.92-.15-.48-.07-1.03-.09-1.55-.04-.89-.11-1.85,.9-2.28,1.13-.48,2.3-.41,3.32,.34,1.36,1.01,1.49,2.37,.66,3.93-2.73,5.12-6.99,8.2-12.57,9.6-.93,.23-.99,1.26-1.85,1.74,3.19,.6,6.16,.34,9.13-.12,2.38-.37,4.73-.9,7.14-1,.37-.02,.86-.41,1.05,.11,.14,.4-.43,.48-.69,.69-.09,.07-.17,.16-.26,.24-6.94,3.12-14.04,3.87-21.26,1.1-1.27-.49-2.47-.75-3.8-.81-3.54-.15-6.84-1-9.4-3.65-1.96-2.03-2.26-4.51-1.69-7.15,.19-.86,.87-1.3,1.64-1.63,1.36-.58,2.8-.68,4.25-.68,2.87-.01,5.66-.36,8.41-1.28,1.74-.58,2.4-1.86,2.92-3.36,.14-.41-.16-.67-.35-.97-1.19-1.85-2.42-3.68-3.58-5.55-1.24-2-1.29-4.11-.28-6.19,1.92-3.97,4.78-7.17,8.33-9.77,.74-.54,1.57-.98,2.52-1.08,.34-.04,.59-.17,.83-.42,3.27-3.46,7.22-6.09,11.12-8.75,5.39-3.68,10.85-7.28,16.82-10.01,2.63-1.21,5.31-2.26,8.3-2.17,1.51,.05,2.01,.42,2.16,1.95,.42,4.16-.27,8.2-1.42,12.19-.53,1.84-1.25,3.63-1.48,5.55-.09,.74-.04,1.02,.82,.84,4.05-.83,8.16-1.32,12.2-2.19,1.93-.42,3.89-.57,5.74,.52,.9,.53,1.53,1.22,1.62,2.24,.44,4.89,1.32,9.77,.32,14.68-.09,.43-.15,.88-.31,1.28-.26,.62-.78,.89-1.46,.81-.7-.08-1.15-.54-1.14-1.19,.04-1.42-.67-1.29-1.72-1.1-5.81,1.04-11.63,2.01-17.55,2.15-1.58,.04-1.56,.08-1.43,1.62,.3,3.5,.93,6.99,.6,10.52-.09,.97,.45,.69,.95,.55,3.41-.92,6.83-1.81,10.37-2.08,1.44-.11,2.88-.23,4.32-.31,1.88-.1,2.77,.85,2.32,2.66-.75,3-1.17,6.04-1.53,9.1-.13,1.1-.5,2.11-1.64,2.62Z"/>
  <path class="cls-8" d="M62.28,60.16c0-.74,.17-1.41,.61-2.02,2.48-3.5,5.39-6.49,9.2-8.63,1.9-1.07,3.35-2.84,5.2-4.05,13.01-8.48,26.73-15.41,41.99-18.93,9.19-2.12,18.31-1.27,27.45,.64,8.75,1.83,16.81,5.24,24.51,9.65,4.34,2.49,8.95,4.53,12.9,7.67,.97,.77,1.93,1.56,2.82,2.43,1.23,1.2,1.42,2.72,.58,3.77-.87,1.09-2.05,1.16-3.68,.29-7.39-3.95-14.72-8.01-22.19-11.8-8.99-4.57-18.61-7.24-28.64-8.17-8.47-.79-16.6,1.15-24.54,3.92-11,3.83-21.39,8.92-31.15,15.25-1.87,1.21-3.74,2.48-5.21,4.21-.15,.18-.33,.41-.53,.47-3,.9-4.55,3.43-6.44,5.59-1.37,1.18-2.04,1.12-2.87-.28Z"/>
  <path class="cls-8" d="M97.72,58.51c-.36,.17-.72,.34-1.07,.51-.51,.25-.99,.29-1.46-.1-.46-.38-.53-.86-.4-1.41,.25-1.05,1.06-1.67,1.84-2.29,3.02-2.38,6.37-4.15,9.95-5.52,7.83-3,15.85-5.2,24.27-5.66,6.94-.38,13.67,.79,20.27,2.82,3.19,.98,6.33,2.08,9.04,4.11,.74,.55,1.45,1.14,1.97,1.92,1.09,1.6,1.01,2.76-.28,4.19-1.99,.62-3.7-.19-5.39-1.05-4.88-2.49-10.02-4.23-15.38-5.39-6.78-1.48-13.55-1.22-20.31-.02-7.81,1.39-15.36,3.6-22.36,7.44-.24,.13-.47,.3-.71,.45Z"/>
  <path class="cls-8" d="M37.3,124.3c.45-.51,.72-1.26,1.66-1.02,.95,.24,1.04,1.01,1.18,1.75,1.54,7.73,2.03,15.59,2.77,23.42,.23,2.42,.61,4.83,.89,7.25,.06,.56,.29,.77,.84,.71,2.79-.27,5.6-.4,8.38-.81,.87-.13,1.56-.82,2.52-.68,.4,.06,.29-.41,.27-.65-.5-7.34-.29-14.7-.81-22.04-.07-.96-.06-1.92-.06-2.88,0-.88-.04-1.67-.71-2.42-.75-.85-.2-1.85,1.1-2.16,1.73-.41,3.52-.28,5.27-.39,2.32-.14,4.65-.1,6.98-.17,1.38-.04,2.71,.02,3.91,.81,.85,1.41,.37,2.41-1.36,2.67-3.46,.54-6.93,.86-10.43,.6-1.05-.08-1.28,.22-1.17,1.24,.83,7.44,.77,14.92,.94,22.38,.03,1.24,.19,2.47,.19,3.71,0,1.63-1.04,2.33-2.54,1.75-.33-.13-.57-.36-.93,.02-1.27,1.28-2.94,1.78-4.66,2-2.67,.35-5.35,.53-8.04,.23-1-.11-1.63-.53-2.16-1.56-1.99-3.81-1.65-8.02-2.2-12.04-.8-5.93-1.22-11.92-1.76-17.89-.12-1.27-.07-2.55-.09-3.83Z"/>
  <path class="cls-8" d="M154.64,81.87c1.03,2.53,1.07,5.21,1.2,7.86,.44,9.4-.05,18.76-1.08,28.1-.62,5.61-.5,11.25-.24,16.88,.22,4.67,.44,9.33,.66,14,.02,.36,0,.72-.02,1.08-.1,1.93-.72,2.53-2.65,2.61-.92-.39-1.43-1.13-1.73-2.04-.26-.8-.48-1.62-.51-2.46-.38-10.22-1.19-20.45-.17-30.68,.73-7.29,1.2-14.58,.96-21.91-.13-4.11-.17-8.23-.8-12.32-.16-1.02,.15-1.83,1.09-2.31,.93-.47,1.8-.3,2.56,.37,.27,.23,.47,.54,.71,.81Z"/>
  <path class="cls-8" d="M134.42,17.05c15.9-.24,30.88,3.8,45.46,9.67,7.16,2.89,14.06,6.29,20.12,11.16,4.31,3.46,8.03,7.47,11.15,12.03,1.33,1.95,1.94,4.02,1.25,6.35-.11,.39-.22,.8-.71,.87-.49,.07-.74-.27-.91-.64-3.12-6.82-8.95-11.1-14.73-15.34-9.22-6.76-19.7-10.99-30.5-14.49-6.53-2.12-13.16-3.79-19.99-4.7-4.31-.57-8.64-.78-12.97-.73-9.12,.1-18.17,.99-27.12,2.77-16.07,3.2-30.34,9.94-42.25,21.3-.75,.72-1.54,1.41-2.29,2.13-.9,.86-2.02,1.55-2.1,3.03-.02,.42-.44,.84-.74,1.21-1.73,2.15-3.68,4.12-5.06,6.55-.45,.79-1.23,1.4-2.21,.79-.94-.58-.78-1.47-.39-2.34,.07-.15,.14-.29,.23-.42,1.76-2.34,3.32-4.78,4.73-7.37,1.84-3.38,4.94-5.87,7.81-8.43,11.87-10.59,25.88-16.93,41.33-20.28,10.05-2.18,20.11-3.12,29.87-3.13Z"/>
  <path class="cls-2" d="M128.75,235.44c-11.1-.09-24.2-1.38-36.89-5.52-11.53-3.76-21.86-9.75-31.49-17.02-3.01-2.27-5.9-4.68-8.71-7.19-.42-.37-.84-.8-1.34-1.01-4.77-2.02-7.94-5.86-11.16-9.65-.57-.68-.94-1.57-2.11-1.53-.5,.02-.61-.68-.82-1.09-3.23-6.39-6.6-12.71-10.03-18.99-.46-.84-.95-1.67-1.46-2.48-.31-.5-.26-.89,.17-1.27,.06-.05,.11-.12,.17-.17,.97-.96,1.79-2.4,2.94-2.74,1.24-.37,2.31,1.15,3.46,1.83,2.9,1.73,6.02,2.82,9.33,3.42,2.82,.51,5.31,1.6,7.57,3.42,3.79,3.06,7.96,3.14,12.42,.45,2.68-1.61,5.19-3.48,7.9-5.05,3.77-2.18,7.49-2.37,11.31-.24,4.31,2.4,9.06,3.68,13.68,5.26,4.02,1.37,7.85,.2,11.52-1.54,2.64-1.26,5.23-2.63,7.87-3.89,1.59-.76,3.27-1.31,4.97-1.79,1.1-.31,1.93-.07,2.7,.74,1.83,1.94,3.9,3.57,6.36,4.66,6.29,2.79,12.58,3.35,18.89,.04,1.63-.85,3.33-1.58,5.16-1.97,.85-.18,1.48-.02,1.99,.7,.46,.65,.94,1.3,1.45,1.92,5.19,6.37,11.81,7.99,19.48,4.95,3.94-1.57,7.89-3.14,12.04-4.18,2.77-.69,5.21-.29,7.53,1.35,1.17,.83,2.41,1.61,3.69,2.25,3.31,1.64,6.56,1.59,9.69-.53,2.42-1.65,4.83-3.3,7.44-4.64,2.13-1.09,4.11-1.29,6.22,.11,2.09,1.38,4.47,1.93,6.99,1.89,.88-.02,1.77,.02,2.64,.14,2.93,.43,5.34-.6,7.52-2.47,.55-.48,1.11-1.46,1.99-.95,.79,.47,.21,1.39,.18,2.11-.05,1.04-.19,2.07-.24,3.11-.03,.67-.25,1.24-.61,1.79-5.13,7.79-10.62,15.32-16.61,22.48-1.39,1.67-2.99,3.14-4.96,4.13-1.62,.81-2.75,2.2-4.05,3.37-7.55,6.76-16.14,11.81-25.47,15.69-11.73,4.88-24,7.51-36.59,8.91-6.83,.76-13.67,1.17-22.7,1.21Z"/>
  <path class="cls-8" d="M51.07,86.57c-1.23-.08-2.76-.35-4.21-.96-.68-.29-1.29-.68-1.55-1.41-.12-.32-.3-.49-.62-.65-1.38-.69-1.55-1.75-.4-2.84,1.47-1.41,3.02-2.74,4.52-4.13,1.82-1.68,3.58-3.43,5.45-5.06,1.78-1.55,3.85-.75,4.26,1.59,.25,1.43-.09,2.78-.63,4.09-.77,1.89-1.2,3.9-1.95,5.77-.98,2.45-1.65,3.7-4.85,3.61Z"/>
  <path class="cls-8" d="M37.97,95.03c0,.89-.46,1.55-1.14,2.01-3.28,2.21-5.95,5.09-8.79,7.79-1.38,1.31-2.46,1.55-3.34,.75-.88-.79-.8-1.95,.31-3.44,2.26-3.01,4.71-5.86,7.58-8.32,1.6-1.37,3.59-1.41,4.78-.19,.39,.4,.58,.85,.6,1.39Z"/>
  <path class="cls-8" d="M159.45,101.59c0-1.79-.02-3.59,0-5.38,.02-1.55,.39-1.87,1.88-1.56,.42,.09,.69-.11,1.02-.21,4.08-1.23,8.25-1.83,12.46-1.08,3.97,.7,6.66,3.2,8.12,6.91,.96,2.43,.31,4.63-1.39,6.55-2.05,2.32-4.73,3.52-7.68,4.16-2.31,.5-4.62,1.01-7,1.04-.37,0-.83-.1-.92,.5-.17,1.09-.53,2.16-1.84,2.13-1.27-.03-2.22-.84-2.83-1.93-1.09-1.97-1.48-4.12-1.54-6.34-.04-1.6,0-3.19,0-4.79-.09,0-.18,0-.27,0Z"/>
  <path class="cls-3" d="M218.78,109.9c-1.65-1.9-2.7-2.08-4.74-.63-.68,.48-1.18,.44-1.85,.09-2.39-1.26-3.44-3.47-4.31-5.84-.6-1.65-.99-3.38-1.95-4.88-.28-.44-.04-.77,.16-1.1,2.32-3.92,5.06-7.6,8.64-10.38,3.25-2.53,7.23-3.75,11.46-3.81,1.61-.02,3.21,0,4.79,.35,.23,.05,.48,.08,.72,.1,1.53,.11,1.82-.26,1.28-1.68,5.35-.61,10.57-.31,15.61,1.76,2.79,1.15,4.57,3.03,4.94,6.09,.05,.44,.21,.89-.55,.87-2.77-.07-5.28,.92-7.75,1.97-5.42,2.32-10.53,5.13-14.51,9.62-.67,.75-1.33,1.52-1.6,2.51-.22,.81-.25,1.63,.66,2.08,.89,.44,1.63,.03,2.05-.71,.59-1.03,1.26-1.13,2.35-.78,1.66,.55,3.34,.02,4.99-.3,1.25-.24,2.49-.56,3.76-.85,.07,.5-.28,.7-.49,.95-1.3,1.61-2.21,3.42-2.86,5.37-.27,.83-.59,1.35-1.47,.49-.96-.94-2.18-.64-3.32-.5-3.25,.4-6.21,1.6-8.88,3.46-.87,.6-1.19,.47-1.35-.53-.2-1.24-.57-2.44-1.54-3.31-.74-.66-1.56-1.01-2.45-.19-.62,.17-1.23,.2-1.79-.2Z"/>
  <path class="cls-1" d="M218.78,109.9c.6,.04,1.23-.14,1.79,.2,.72,1.68,.72,3.45,.87,5.24,.24,2.87,2.81,4.09,5.23,2.49,2.67-1.76,5.41-3.28,8.6-3.85,.27-.05,.73-.23,.78-.15,.61,.96,1.37,1.5,2.57,1.33,.16-.02,.12,.41,.13,.64,.04,.88,.07,1.75,.13,2.63,.13,2.01,1.63,3.32,2.57,4.92,1.76,3.01,3.26,6.14,4.39,9.44,.85,2.5,.05,4.65-1.41,6.63-2.88,3.89-6.82,6.57-10.75,9.28-1.17,.81-2.35,1.19-3.81,1-1.89-.24-3.81-.26-5.76-.38,.14-.59,.65-.64,.99-.86,4.29-2.79,6.99-6.53,7.11-11.8,.03-1.25-.18-2.49-.73-3.61-1.48-2.99-3.37-5.5-6.7-6.81-4.74-1.85-9.49-3.69-14.12-5.82-1.73-.79-3.29-1.81-4.73-3.05-2.57-2.23-3.63-4.98-3.18-8.35,.26-1.9,.55-3.79,1.19-5.75,.63,1.89,1.17,3.68,2.1,5.33,1.46,2.58,3.76,3.99,6.47,4.84,1.03,.32,1.96,.01,2.43-1.01,.55-1.2,1.44-1.65,2.69-1.54,.73,.07,1.16-.2,1.14-.99Z"/>
  <path class="cls-9" d="M165.08,110c-.06-3.98,.26-7.77-.08-11.55-.04-.43,.16-.55,.56-.56,2.36-.06,4.73-.44,7.07,.06,2.47,.52,4.07,2.11,4.99,4.41,.42,1.03,.19,1.94-.61,2.73-1.34,1.32-2.96,2.19-4.72,2.78-2.31,.77-4.73,1.16-7.2,2.14Z"/>
</svg>